<mxfile host="app.diagrams.net" modified="2024-05-23T13:21:05.114Z" agent="Mozilla/5.0 (Windows NT 10.0; Win64; x64) AppleWebKit/537.36 (KHTML, like Gecko) Chrome/124.0.0.0 Safari/537.36" etag="frM7rCPv-jfkTRZdU-L_" version="24.4.4" type="device">
  <diagram name="Page-1" id="X-aMmgZAMFQ5s_oIoY4-">
    <mxGraphModel dx="1434" dy="738" grid="1" gridSize="10" guides="1" tooltips="1" connect="1" arrows="1" fold="1" page="1" pageScale="1" pageWidth="850" pageHeight="1100" math="0" shadow="0">
      <root>
        <mxCell id="0" />
        <mxCell id="1" parent="0" />
        <mxCell id="E8SBq6b3OBgqpyygrYaW-2" value="ABOUT" style="rounded=0;whiteSpace=wrap;html=1;" vertex="1" parent="1">
          <mxGeometry x="120" y="200" width="120" height="60" as="geometry" />
        </mxCell>
        <mxCell id="E8SBq6b3OBgqpyygrYaW-3" value="BLOGS" style="rounded=0;whiteSpace=wrap;html=1;" vertex="1" parent="1">
          <mxGeometry x="600" y="200" width="120" height="60" as="geometry" />
        </mxCell>
        <mxCell id="E8SBq6b3OBgqpyygrYaW-4" value="EXPERIENCE" style="rounded=0;whiteSpace=wrap;html=1;" vertex="1" parent="1">
          <mxGeometry x="280" y="200" width="120" height="60" as="geometry" />
        </mxCell>
        <mxCell id="E8SBq6b3OBgqpyygrYaW-5" value="EDUCATION" style="rounded=0;whiteSpace=wrap;html=1;" vertex="1" parent="1">
          <mxGeometry x="440" y="200" width="120" height="60" as="geometry" />
        </mxCell>
        <mxCell id="E8SBq6b3OBgqpyygrYaW-7" value="" style="endArrow=classic;html=1;rounded=0;exitX=0.5;exitY=1;exitDx=0;exitDy=0;entryX=0.5;entryY=0;entryDx=0;entryDy=0;" edge="1" parent="1" target="E8SBq6b3OBgqpyygrYaW-2">
          <mxGeometry width="50" height="50" relative="1" as="geometry">
            <mxPoint x="420" y="160" as="sourcePoint" />
            <mxPoint x="450" y="360" as="targetPoint" />
            <Array as="points">
              <mxPoint x="180" y="160" />
            </Array>
          </mxGeometry>
        </mxCell>
        <mxCell id="E8SBq6b3OBgqpyygrYaW-8" value="" style="endArrow=classic;html=1;rounded=0;exitX=0.5;exitY=1;exitDx=0;exitDy=0;entryX=0.5;entryY=0;entryDx=0;entryDy=0;" edge="1" parent="1" target="E8SBq6b3OBgqpyygrYaW-4">
          <mxGeometry width="50" height="50" relative="1" as="geometry">
            <mxPoint x="420" y="160" as="sourcePoint" />
            <mxPoint x="190" y="210" as="targetPoint" />
            <Array as="points">
              <mxPoint x="340" y="160" />
            </Array>
          </mxGeometry>
        </mxCell>
        <mxCell id="E8SBq6b3OBgqpyygrYaW-9" value="" style="endArrow=classic;html=1;rounded=0;entryX=0.5;entryY=0;entryDx=0;entryDy=0;" edge="1" parent="1" target="E8SBq6b3OBgqpyygrYaW-5">
          <mxGeometry width="50" height="50" relative="1" as="geometry">
            <mxPoint x="420" y="160" as="sourcePoint" />
            <mxPoint x="350" y="210" as="targetPoint" />
            <Array as="points">
              <mxPoint x="500" y="160" />
            </Array>
          </mxGeometry>
        </mxCell>
        <mxCell id="E8SBq6b3OBgqpyygrYaW-10" value="" style="endArrow=classic;html=1;rounded=0;entryX=0.5;entryY=0;entryDx=0;entryDy=0;exitX=0.5;exitY=1;exitDx=0;exitDy=0;" edge="1" parent="1" target="E8SBq6b3OBgqpyygrYaW-3">
          <mxGeometry width="50" height="50" relative="1" as="geometry">
            <mxPoint x="420" y="160" as="sourcePoint" />
            <mxPoint x="510" y="210" as="targetPoint" />
            <Array as="points">
              <mxPoint x="660" y="160" />
            </Array>
          </mxGeometry>
        </mxCell>
        <mxCell id="E8SBq6b3OBgqpyygrYaW-11" value="HOME&lt;br&gt;(LANDING PAGE)" style="rounded=0;whiteSpace=wrap;html=1;" vertex="1" parent="1">
          <mxGeometry x="360" y="70" width="120" height="60" as="geometry" />
        </mxCell>
        <mxCell id="E8SBq6b3OBgqpyygrYaW-13" value="" style="endArrow=none;html=1;rounded=0;exitX=0.5;exitY=1;exitDx=0;exitDy=0;" edge="1" parent="1" source="E8SBq6b3OBgqpyygrYaW-11">
          <mxGeometry width="50" height="50" relative="1" as="geometry">
            <mxPoint x="400" y="410" as="sourcePoint" />
            <mxPoint x="420" y="160" as="targetPoint" />
          </mxGeometry>
        </mxCell>
      </root>
    </mxGraphModel>
  </diagram>
</mxfile>
